<svg id="图层_1" data-name="图层 1" xmlns="http://www.w3.org/2000/svg" viewBox="0 0 128 128">
    <defs>
        <style>.cls-1{fill:#49ace2;}.cls-2{fill:#4285c7;}</style>
    </defs>
    <polygon class="cls-1" points="94.65 55.16 94.65 81.69 64 99.39 64 72.86 94.65 55.16"/>
    <polygon class="cls-2" points="64 72.86 64 99.39 33.34 81.69 33.34 55.15 64 72.86"/>
    <polygon class="cls-1" points="94.65 46.3 64 64 33.34 46.3 64 28.61 94.65 46.3"/>
    <polygon class="cls-1" points="116.65 33.59 102.65 41.69 64 19.36 64 3.19 116.65 33.59"/>
    <polygon class="cls-1"
             points="116.65 42.45 116.65 94.39 64 124.81 64 108.64 102.65 86.31 102.65 50.53 116.65 42.45"/>
    <polygon class="cls-2"
             points="25.34 41.69 25.34 86.31 64 108.64 64 124.81 11.34 94.39 11.34 33.59 64 3.19 64 19.36 25.34 41.69"/>
</svg>